<svg id="Layer_1" data-name="Layer 1" xmlns="http://www.w3.org/2000/svg" xmlns:xlink="http://www.w3.org/1999/xlink" viewBox="0 0 250 250"><defs><style>.cls-1{fill:#fff;}.cls-2{fill:url(#linear-gradient);}</style><linearGradient id="linear-gradient" x1="120.96" y1="247.35" x2="261.53" y2="166.19" gradientUnits="userSpaceOnUse"><stop offset="0" stop-color="#fff"/><stop offset="0" stop-color="#e11d24"/><stop offset="0.12" stop-color="#df2127"/><stop offset="0.24" stop-color="#db2c31"/><stop offset="0.36" stop-color="#d34041"/><stop offset="0.47" stop-color="#c85b57"/><stop offset="0.51" stop-color="#c4655f"/><stop offset="0.53" stop-color="#c35e65"/><stop offset="0.63" stop-color="#bf4678"/><stop offset="0.74" stop-color="#bd3585"/><stop offset="0.85" stop-color="#bb2b8d"/><stop offset="1" stop-color="#bb2890"/></linearGradient></defs><title>favicon</title><rect class="cls-1" width="250" height="250"/><path class="cls-2" d="M141.61,120.31c11.26-2,28.15-3.43,45.54-3.43,23.75,0,39.9,3.92,50.92,13.22,9.06,7.59,14.2,19.1,14.2,33,0,21.3-14.44,35.74-29.87,41.37v.73c11.75,4.41,18.85,15.91,23,31.83,5.14,20.56,9.55,39.66,13,46H227.3c-2.45-4.9-6.36-18.36-11-38.92-4.65-21.54-12.49-28.4-29.62-28.89H171.48v67.81H141.61Zm29.87,73h17.87c20.32,0,33.05-10.77,33.05-27.17,0-18.12-12.73-26.44-32.32-26.44-9.55,0-15.67.73-18.61,1.47Z" transform="translate(-75 -75)"/></svg>